<svg class="img-fluid" id="outputsvg" xmlns="http://www.w3.org/2000/svg" style="transform: none; transform-origin: 50% 50%; cursor: move; max-height: none;" width="1812" height="766" viewBox="0 0 18120 7660"><g id="l1VNFWQALTL34zmjWJjewpc" fill="rgb(186,93,5)" style="transform: none;"><g style="transform: none;"><path id="p11z1fTdUF" d="M824 5981 c-2 -2 -23 -7 -46 -12 -65 -11 -162 -39 -173 -50 -5 -5 -16 -9 -25 -9 -10 0 -36 -13 -58 -30 -23 -16 -44 -30 -47 -30 -7 0 -63 -58 -93 -96 -67 -84 -131 -258 -151 -409 -31 -231 59 -477 238 -652 35 -35 69 -63 76 -63 7 0 18 -7 25 -15 17 -21 69 -45 96 -45 13 0 26 -4 29 -10 3 -5 15 -10 26 -10 10 0 19 -4 19 -10 0 -6 52 -10 138 -10 110 0 145 4 177 19 46 21 164 28 175 11 10 -16 236 -15 256 1 19 16 21 498 2 517 -8 8 -49 12 -118 12 l-107 0 -16 -32 c-9 -18 -31 -66 -48 -107 -44 -98 -78 -121 -182 -121 -61 0 -77 3 -92 20 -10 11 -24 20 -31 20 -16 0 -52 45 -70 89 -23 56 -37 213 -32 374 4 141 6 156 32 205 15 29 38 58 51 64 14 6 25 15 25 20 0 16 84 48 125 48 23 0 54 -9 73 -20 18 -11 39 -20 47 -20 8 0 15 -4 15 -9 0 -5 9 -13 21 -16 23 -8 49 -60 49 -99 0 -14 5 -37 12 -51 11 -25 12 -25 129 -25 107 0 119 2 129 19 13 25 13 255 0 300 -11 41 -66 101 -92 101 -10 0 -18 5 -18 10 0 6 -9 10 -20 10 -11 0 -20 5 -20 10 0 6 -6 10 -13 10 -8 0 -28 7 -45 15 -17 9 -40 18 -50 20 -11 2 -42 11 -68 20 -27 9 -73 19 -101 22 -29 3 -53 9 -53 13 0 8 -188 9 -196 1z"></path><path id="pY51b3fng" d="M1811 5956 c-24 -10 -31 -46 -31 -153 0 -92 19 -152 49 -154 58 -3 73 -7 95 -28 32 -30 73 -155 155 -473 16 -62 39 -148 51 -191 12 -43 19 -85 16 -93 -4 -10 -25 -14 -84 -14 -47 0 -83 -5 -90 -12 -8 -8 -12 -53 -12 -134 0 -98 3 -126 16 -138 14 -14 67 -16 440 -16 250 0 423 4 420 9 -3 5 7 14 23 19 23 8 32 20 40 49 21 85 115 433 136 508 12 44 46 166 74 270 54 196 72 242 92 237 25 -6 77 19 83 41 10 40 6 235 -6 262 l-11 25 -366 -2 -366 -3 -3 -139 c-2 -119 0 -141 14 -157 10 -11 25 -19 34 -19 27 0 60 -38 60 -70 0 -17 -9 -38 -22 -50 -20 -18 -35 -20 -158 -20 -157 0 -170 6 -170 76 0 48 14 64 56 64 54 0 64 25 64 166 0 94 -3 124 -15 134 -17 14 -553 20 -584 6z m742 -679 c5 -12 -89 -414 -99 -426 -9 -10 -17 15 -55 170 -49 198 -55 235 -41 251 16 20 188 24 195 5z"></path><path id="ppTgBWkUP" d="M4795 5960 c-159 -7 -193 -18 -247 -76 -44 -46 -56 -104 -58 -261 0 -106 -12 -189 -30 -223 -23 -42 -210 -69 -225 -32 -4 9 -9 74 -9 143 l-2 127 51 8 50 9 3 134 c2 114 0 137 -14 152 -16 18 -38 19 -343 19 -179 0 -336 -3 -348 -6 -22 -6 -23 -10 -23 -143 0 -75 4 -141 8 -148 4 -6 30 -13 57 -15 l50 -3 0 -394 0 -394 -47 -14 c-27 -8 -49 -20 -52 -31 -19 -61 -24 -114 -17 -159 10 -63 31 -87 71 -81 17 3 30 1 30 -4 0 -5 5 -6 10 -3 6 3 10 1 10 -5 0 -8 59 -10 195 -9 107 0 195 5 195 10 0 5 125 9 285 9 158 0 285 4 285 9 0 5 29 11 65 13 55 3 73 10 122 43 89 62 143 171 143 293 0 94 -16 136 -75 189 -86 79 -106 93 -129 93 -13 0 -31 9 -40 19 -10 11 -27 21 -39 23 -11 2 -22 9 -25 15 -4 15 27 28 83 37 50 8 109 56 128 105 9 21 23 81 32 132 9 51 19 97 21 101 3 4 27 8 54 8 34 0 50 4 54 16 8 20 8 268 0 288 -7 18 -25 18 -279 6z m-370 -825 c90 -41 117 -152 58 -241 -25 -38 -104 -57 -193 -47 l-75 8 3 139 c2 89 7 145 14 154 15 17 146 9 193 -13z"></path><path id="p5RbVEwP5" d="M5797 5960 c-294 -4 -349 -7 -358 -20 -12 -18 -2 -109 18 -169 8 -24 32 -72 54 -107 l39 -64 0 -370 0 -369 -32 -17 c-47 -24 -68 -44 -84 -83 -16 -38 -11 -102 12 -158 11 -28 18 -33 48 -33 19 0 38 -4 41 -10 8 -13 285 -13 285 0 0 6 119 11 313 13 171 2 338 9 369 15 71 13 175 69 217 117 73 84 101 184 91 335 -5 87 -12 115 -35 164 -45 92 -173 206 -232 206 -13 0 -23 4 -23 9 0 5 -12 9 -26 9 -15 0 -29 4 -33 10 -9 14 -74 21 -236 28 -77 3 -144 10 -150 15 -12 12 -18 130 -7 147 5 7 32 16 61 21 29 5 57 15 62 22 5 8 9 71 9 140 0 109 -2 128 -18 142 -10 10 -23 16 -28 15 -5 -1 -166 -5 -357 -8z m432 -790 c60 -30 77 -59 84 -141 7 -86 -4 -114 -63 -153 -45 -29 -161 -48 -174 -28 -3 6 -9 81 -13 167 -5 129 -4 158 8 166 26 16 118 10 158 -11z"></path><path id="pOD8n779z" d="M7160 5957 c-22 -11 -25 -20 -28 -81 -3 -72 19 -168 45 -198 8 -9 28 -20 44 -23 15 -4 31 -14 34 -24 22 -69 22 -696 0 -753 -4 -9 -20 -27 -37 -40 -78 -58 -73 -48 -73 -147 0 -78 3 -92 20 -104 26 -20 198 -43 203 -28 5 14 322 16 322 1 0 -16 217 -13 221 3 2 6 3 69 1 140 l-3 127 -54 0 c-53 0 -55 1 -63 32 -5 18 -8 194 -7 391 2 400 -2 378 75 400 l45 13 3 136 c2 123 1 138 -15 146 -30 15 -704 23 -733 9z"></path><path id="p12RzX8cHS" d="M8584 5960 c-284 -6 -279 -5 -269 -89 4 -31 13 -67 20 -81 7 -14 22 -43 33 -65 11 -22 30 -56 41 -75 54 -90 56 -98 56 -240 -1 -74 -5 -229 -10 -345 l-10 -209 -45 -11 c-57 -14 -79 -50 -87 -142 -5 -63 -3 -71 18 -96 21 -25 36 -30 134 -44 109 -15 373 -14 468 3 52 9 81 44 153 181 81 157 192 363 239 443 21 36 50 88 64 115 14 28 33 50 41 50 17 0 16 18 12 -282 -2 -173 -3 -183 -24 -203 -12 -11 -34 -20 -48 -20 -48 0 -60 -26 -60 -126 0 -107 21 -154 68 -154 15 0 33 -5 39 -11 11 -11 445 -15 463 -4 15 9 13 257 -2 278 -8 10 -31 17 -58 19 -76 5 -77 13 -85 593 -4 270 -10 494 -14 498 -19 20 -449 26 -506 7 -46 -15 -75 -52 -136 -171 -53 -103 -163 -305 -234 -429 -21 -36 -47 -82 -58 -102 -39 -72 -45 -53 -46 166 -1 201 -1 205 21 220 12 9 36 16 53 16 56 0 60 8 65 147 6 136 -3 175 -38 171 -9 -1 -125 -5 -258 -8z"></path><path id="pE6XDTWM8" d="M10488 5938 c-30 -26 -30 -28 -23 -94 10 -93 26 -134 73 -181 28 -28 42 -53 48 -84 14 -68 5 -701 -9 -715 -23 -22 -54 -25 -76 -7 -16 13 -28 47 -47 128 -14 61 -29 114 -33 118 -4 4 -61 6 -127 5 l-119 -3 -3 -259 c-2 -201 1 -261 10 -268 7 -4 30 -8 51 -8 20 0 37 -4 37 -10 0 -5 11 -10 25 -10 14 0 25 5 25 10 0 7 173 10 500 10 327 0 500 -3 500 -10 0 -6 37 -10 90 -10 75 0 91 3 97 17 14 31 10 520 -4 534 -11 11 -75 13 -148 5 -43 -4 -92 -28 -102 -49 -16 -35 -33 -92 -33 -111 0 -9 -7 -31 -17 -49 -29 -57 -66 -72 -97 -39 -15 17 -16 56 -14 403 l3 384 62 3 c88 4 93 14 93 168 0 88 -4 125 -13 132 -9 8 -131 12 -366 14 l-353 3 -30 -27z"></path><path id="ppa1Iwdke" d="M13500 5960 c0 -5 -9 -10 -19 -10 -11 0 -23 -5 -27 -11 -11 -19 -6 -260 7 -275 6 -7 27 -14 47 -16 l37 -3 3 -387 c2 -341 0 -388 -13 -388 -8 0 -15 -4 -15 -8 0 -5 -18 -17 -40 -27 -32 -15 -41 -25 -47 -54 -12 -57 -6 -200 8 -218 12 -14 54 -15 374 -9 415 8 663 19 753 35 140 24 209 89 238 226 32 145 10 248 -67 324 -52 51 -123 91 -162 91 -25 0 -47 17 -47 37 0 7 8 13 19 13 53 0 154 73 177 129 9 20 20 74 25 121 8 69 14 88 31 102 12 9 30 15 40 13 10 -2 32 1 48 7 l30 10 0 135 c0 74 -5 143 -10 154 -13 23 -73 25 -263 9 -130 -11 -204 -26 -228 -46 -8 -8 -20 -14 -26 -14 -6 0 -21 -19 -33 -42 -18 -36 -23 -69 -30 -192 -5 -82 -12 -168 -15 -190 -8 -49 -41 -106 -61 -106 -8 0 -14 -4 -14 -10 0 -6 -33 -10 -80 -10 -78 0 -81 1 -91 26 -5 15 -8 84 -7 153 l3 126 45 3 c24 2 48 9 52 15 4 7 8 66 8 133 0 157 -3 161 -119 163 -59 1 -87 -2 -93 -11 -6 -10 -8 -10 -8 0 0 7 -15 12 -39 12 -22 0 -42 -6 -45 -12 -5 -10 -7 -10 -12 1 -5 11 -8 11 -16 0 -7 -11 -11 -11 -15 -1 -6 15 -303 18 -303 2z m710 -813 c78 -21 115 -67 114 -144 -1 -62 -19 -94 -74 -128 -34 -21 -52 -25 -119 -25 -55 0 -82 4 -90 14 -8 9 -11 57 -9 147 l3 134 35 7 c34 6 108 4 140 -5z"></path><path id="p4eP3mI2p" d="M16360 5958 c0 -5 -6 -8 -14 -8 -22 0 -26 -23 -26 -138 0 -130 10 -155 63 -162 44 -6 104 -51 118 -88 5 -14 19 -57 29 -96 11 -39 29 -102 40 -141 56 -198 120 -457 115 -465 -4 -6 -33 -10 -66 -10 -34 0 -73 -7 -89 -15 l-30 -16 0 -124 c0 -113 2 -125 19 -135 13 -6 173 -10 450 -10 l431 0 14 23 c16 26 34 82 71 227 15 58 33 125 40 150 7 25 20 72 29 105 9 33 32 116 51 185 19 69 42 152 51 185 58 210 62 219 117 221 50 3 57 23 57 170 0 99 -3 134 -14 143 -9 8 -117 11 -377 9 l-364 -3 -3 -139 c-2 -119 0 -141 14 -157 10 -11 27 -19 39 -19 49 0 72 -71 39 -118 -14 -21 -22 -22 -159 -22 -137 0 -145 1 -159 22 -9 12 -16 39 -16 60 0 42 19 58 69 58 20 0 34 7 41 19 16 30 13 266 -3 280 -16 12 -577 21 -577 9z m735 -700 c-4 -18 -19 -87 -35 -153 -15 -66 -33 -145 -39 -175 -18 -86 -27 -92 -45 -29 -21 71 -86 356 -86 375 0 11 20 14 106 14 l106 0 -7 -32z"></path><path id="pwHirvMUy" d="M11890 5940 c-19 -19 -20 -31 -18 -130 3 -104 4 -111 28 -127 59 -41 67 -56 75 -144 11 -114 13 -327 5 -479 -3 -69 -2 -140 3 -159 11 -41 2 -51 -49 -58 -64 -9 -72 -17 -79 -85 -9 -85 1 -190 18 -203 19 -14 300 -11 412 5 88 12 286 10 571 -6 95 -5 113 -4 127 11 15 14 17 46 17 270 0 192 -3 256 -12 262 -29 18 -211 2 -234 -21 -10 -10 -43 -133 -50 -186 -4 -38 -30 -50 -112 -50 -112 0 -112 0 -112 133 0 75 4 117 12 125 7 7 41 12 83 12 100 0 105 6 105 147 0 140 -8 151 -120 155 l-75 3 -3 100 c-1 55 2 107 8 115 7 12 31 15 106 15 l98 0 32 -127 c17 -69 35 -131 39 -137 4 -7 50 -11 120 -11 l114 0 9 33 c13 51 4 540 -11 549 -7 4 -254 8 -549 8 -528 0 -538 0 -558 -20z"></path><path id="p35QTIjcp" d="M15260 5953 c-27 -10 -30 -26 -30 -148 1 -146 7 -159 74 -153 25 3 50 0 56 -6 16 -16 14 -757 -2 -779 -8 -10 -31 -17 -63 -19 l-50 -3 -3 -123 c-3 -133 3 -152 50 -152 13 0 30 -6 37 -13 9 -9 87 -11 334 -9 177 1 330 5 340 8 28 9 32 33 27 154 -6 122 -6 124 -73 134 -23 4 -47 12 -54 18 -10 8 -13 91 -13 393 0 426 -5 395 70 395 59 0 65 14 65 162 0 103 -3 131 -15 138 -16 10 -724 13 -750 3z"></path></g></g><g id="l60livjnlr70Sy2RcHyXZTB" fill="rgb(30,33,46)" style="transform: none;"><g style="transform: none;"><path id="pbxCLUXHZ" d="M4160 7204 c0 -22 4 -24 54 -24 60 0 101 -19 170 -77 42 -35 66 -42 66 -19 0 41 -154 130 -237 138 -50 5 -53 4 -53 -18z"></path><path id="p3mqbMYso" d="M6280 7222 c-36 -2 -69 -7 -74 -12 -12 -12 24 -80 41 -80 7 0 13 11 13 25 0 16 6 25 15 25 10 0 15 -11 15 -35 0 -28 4 -35 19 -35 12 0 20 9 24 28 4 19 17 34 41 47 23 12 32 23 26 30 -10 12 -24 12 -120 7z"></path><path id="pGTvanDRm" d="M6733 7222 c-30 -3 -33 -6 -33 -38 0 -19 2 -34 5 -34 12 0 95 45 95 52 0 13 -34 24 -67 20z"></path><path id="pRo02k5aB" d="M9183 7222 c-24 -2 -43 -6 -43 -10 0 -4 7 -42 15 -85 8 -43 15 -81 15 -83 0 -2 8 -4 18 -4 15 0 19 7 17 37 -3 46 10 85 36 109 35 31 18 41 -58 36z"></path><path id="pPsvshlKC" d="M13803 7218 c-27 -9 -33 -16 -33 -39 l0 -29 33 20 c40 25 132 27 165 4 21 -15 22 -14 22 14 0 27 -3 30 -46 36 -61 8 -102 6 -141 -6z"></path><path id="pH2MPEAVH" d="M5030 7208 c0 -28 13 -58 24 -58 18 1 68 49 61 60 -9 15 -85 13 -85 -2z"></path><path id="p13KoxwelM" d="M5560 7175 c0 -25 3 -45 6 -45 14 0 75 71 69 80 -3 6 -22 10 -41 10 -34 0 -34 0 -34 -45z"></path><path id="pLuYoMWmf" d="M7345 7210 c-11 -18 6 -50 26 -50 14 0 19 7 19 30 0 23 -5 30 -19 30 -11 0 -23 -5 -26 -10z"></path><path id="plDeo2Dq4" d="M7420 7208 c0 -17 23 -78 30 -78 12 0 61 71 55 80 -9 14 -85 13 -85 -2z"></path><path id="pb9rfOMUj" d="M8440 7165 c0 -47 3 -55 19 -55 13 0 20 9 24 30 4 19 17 35 37 45 45 23 37 35 -25 35 l-55 0 0 -55z"></path><path id="pQTz8AosN" d="M9639 7193 c-14 -16 -38 -46 -54 -68 -27 -39 -359 -375 -370 -375 -3 0 -5 36 -5 80 0 73 -2 80 -20 80 -17 0 -20 -7 -22 -52 0 -29 -2 -64 -3 -78 -2 -14 -4 -56 -6 -95 -4 -66 -3 -70 19 -73 39 -6 82 32 257 222 151 164 192 203 200 194 1 -2 5 -77 9 -168 3 -91 6 -166 6 -167 0 -2 9 -3 20 -3 19 0 20 7 20 265 0 287 -1 293 -51 238z"></path><path id="p1Bw3YklDe" d="M10507 7213 c-4 -3 -7 -17 -7 -30 0 -18 6 -23 24 -23 13 0 27 6 30 13 3 8 8 7 16 -5 15 -24 32 -23 58 5 37 39 29 47 -46 47 -38 0 -72 -3 -75 -7z"></path><path id="p12Gor4tvN" d="M11533 7213 c-34 -3 -43 -8 -43 -24 0 -10 5 -19 10 -19 6 0 10 -8 10 -17 0 -15 2 -16 10 -3 7 11 37 16 117 20 100 5 121 2 221 -26 17 -5 22 -2 22 13 0 11 -6 27 -13 38 -12 16 -31 18 -153 20 -76 2 -158 1 -181 -2z"></path><path id="pjIAgOo4s" d="M12550 7204 c0 -17 23 -44 39 -44 16 0 81 41 81 51 0 5 -27 9 -60 9 -48 0 -60 -3 -60 -16z"></path><path id="pODdcJv3O" d="M12958 7213 c-18 -5 -25 -33 -9 -33 5 0 11 -9 13 -20 3 -18 6 -17 51 11 26 16 45 34 42 39 -6 10 -65 12 -97 3z"></path><path id="pE8LJ9feF" d="M12850 7091 c0 -5 -9 -13 -20 -16 -11 -3 -20 -15 -20 -26 0 -10 -4 -19 -10 -19 -5 0 -10 -16 -10 -35 0 -45 12 -44 46 3 15 20 41 52 58 70 l30 32 -37 0 c-20 0 -37 -4 -37 -9z"></path><path id="pydRzhzQG" d="M5136 6922 c24 -43 48 -84 53 -92 4 -8 16 -17 25 -18 15 -3 12 7 -15 55 -37 67 -35 88 10 98 17 4 31 13 31 20 0 10 -18 14 -74 13 l-75 0 45 -76z"></path><path id="pNnCMjKgs" d="M11480 6895 c0 -77 2 -85 19 -85 14 0 21 8 23 28 l3 27 104 3 c86 2 107 0 122 -14 11 -9 19 -21 19 -26 0 -5 7 -16 15 -24 13 -14 15 -11 15 24 0 62 -21 73 -148 82 -60 4 -114 10 -121 14 -6 4 -11 18 -11 32 0 17 -5 24 -20 24 -18 0 -20 -7 -20 -85z"></path><path id="pAetitq4M" d="M13546 6956 c-13 -54 40 -226 71 -226 19 0 16 58 -7 105 -11 23 -19 62 -20 93 0 44 -3 52 -19 52 -12 0 -21 -9 -25 -24z"></path><path id="p16BHJuqBR" d="M6300 6916 c0 -57 13 -74 38 -49 30 30 140 7 189 -39 20 -18 23 -19 23 -5 0 11 8 17 25 17 37 0 31 27 -11 52 -29 17 -34 25 -30 44 6 21 3 24 -24 24 -28 0 -30 -3 -31 -37 -1 -21 -3 -30 -6 -20 -2 9 -11 17 -19 17 -9 0 -14 10 -14 27 l0 27 -28 -27 c-35 -34 -60 -34 -72 -2 -5 14 -16 25 -25 25 -12 0 -15 -12 -15 -54z"></path><path id="pZHhFVOF5" d="M14105 6908 c0 -35 -3 -78 -7 -95 -7 -30 -5 -33 16 -33 29 0 36 21 36 118 0 68 -1 72 -23 72 -21 0 -23 -4 -22 -62z"></path><path id="p180zVu8l2" d="M7508 6924 c-15 -15 -8 -22 30 -28 64 -12 100 -29 113 -53 15 -28 39 -30 39 -4 0 12 8 21 22 23 36 5 32 27 -9 45 -40 17 -183 30 -195 17z"></path><path id="pCVqmHpQL" d="M10568 6678 c-4 -39 -28 -51 -28 -14 0 35 -35 36 -44 2 -5 -22 -13 -25 -72 -31 -75 -9 -109 2 -126 40 -6 14 -18 25 -26 25 -22 0 -7 -61 21 -82 31 -24 75 -28 306 -25 186 3 204 4 217 22 15 21 19 61 6 69 -5 3 -19 -8 -31 -25 -22 -29 -24 -30 -99 -27 l-77 3 -3 38 c-2 28 -8 37 -22 37 -14 0 -20 -8 -22 -32z"></path><path id="p1Bg2z2wtH" d="M11480 6655 l0 -55 65 0 c51 0 65 3 65 15 0 10 -10 15 -33 15 -40 0 -57 15 -57 52 0 21 -5 28 -20 28 -18 0 -20 -7 -20 -55z"></path><path id="pnJEC6MEw" d="M11823 6673 c-16 -33 -23 -38 -56 -41 -24 -2 -37 -8 -37 -18 0 -10 13 -14 48 -14 57 0 83 21 85 71 3 46 -19 47 -40 2z"></path><path id="pAee7xyX3" d="M13700 6677 c0 -33 4 -38 49 -60 66 -34 111 -43 111 -24 0 9 -16 21 -37 28 -20 6 -56 30 -80 52 l-43 40 0 -36z"></path><path id="p1H1TekMj3" d="M3982 6684 c-18 -20 -3 -38 57 -68 81 -41 174 -48 251 -21 21 7 41 11 44 8 10 -10 56 7 56 21 0 21 -57 28 -89 11 -38 -19 -129 -25 -186 -12 -28 7 -58 23 -80 44 -39 38 -36 37 -53 17z"></path><path id="pCfnPIfiG" d="M14025 6670 c-35 -36 -84 -60 -124 -60 -22 0 -31 -5 -31 -16 0 -15 9 -16 61 -10 33 3 76 13 95 22 30 14 34 21 34 55 0 22 -1 39 -3 39 -2 0 -16 -13 -32 -30z"></path><path id="p13TzydT3E" d="M8370 6671 c0 -10 -3 -33 -6 -50 l-6 -31 80 0 c52 0 83 4 88 12 4 6 2 14 -4 16 -7 2 -19 11 -28 19 -10 11 -25 13 -49 9 -33 -6 -35 -5 -35 19 0 18 -5 25 -20 25 -13 0 -20 -7 -20 -19z"></path><path id="ptZ3BT3dx" d="M12785 6670 c-26 -29 -9 -42 43 -34 32 5 42 11 42 25 0 12 -7 19 -19 19 -11 0 -26 2 -33 5 -8 3 -23 -4 -33 -15z"></path><path id="pvK54mwJB" d="M7614 6660 c-28 -29 -117 -39 -143 -16 -15 14 -23 15 -45 5 -14 -7 -26 -20 -26 -29 0 -14 12 -19 58 -23 65 -7 163 0 175 12 5 5 7 23 5 40 l-3 32 -21 -21z"></path><path id="plHPmen8B" d="M6283 6663 c-54 -7 -38 -46 22 -58 66 -13 127 -17 170 -11 36 6 45 11 45 27 0 19 -5 20 -84 13 -79 -6 -85 -5 -98 15 -7 11 -15 20 -18 19 -3 0 -20 -3 -37 -5z"></path><path id="pckmTWsvr" d="M13640 4140 c-11 -7 -15 -29 -15 -87 0 -91 18 -159 43 -165 9 -3 82 1 162 9 256 24 1660 44 1660 24 0 -5 77 -10 179 -11 137 0 180 2 184 12 4 10 6 10 6 1 1 -15 51 -18 51 -3 0 6 113 10 320 10 176 0 320 -4 320 -8 0 -4 189 -9 420 -9 283 -1 425 -5 434 -12 13 -11 200 -9 291 4 68 10 147 45 143 64 -2 8 -19 19 -38 24 -138 34 -148 34 -2072 30 -1041 -2 -1913 0 -1938 4 -40 8 -49 15 -83 66 -40 60 -43 62 -67 47z"></path><path id="pblI32FDD" d="M4266 4118 c-9 -12 -16 -27 -16 -33 0 -7 -12 -22 -26 -36 l-26 -24 -1866 0 c-1720 0 -1872 -1 -1936 -17 -67 -16 -96 -31 -83 -44 16 -16 183 -35 387 -44 297 -12 2079 -13 2290 0 109 7 264 7 455 0 160 -5 387 -12 505 -15 239 -5 280 -12 319 -49 33 -32 59 -33 66 -3 3 12 4 81 3 152 l-3 130 -27 3 c-18 2 -31 -4 -42 -20z"></path><path id="pe8Kh6Gek" d="M12600 3960 c-47 -3 -92 -9 -101 -15 -15 -9 -29 -46 -58 -150 -6 -22 -15 -89 -21 -149 -7 -65 -20 -133 -34 -170 -13 -34 -27 -82 -31 -106 -7 -47 -80 -272 -121 -375 -13 -33 -53 -120 -89 -194 -36 -73 -65 -142 -63 -154 4 -24 44 -48 122 -73 46 -14 63 -16 87 -7 53 20 423 246 449 274 55 59 101 131 218 338 43 77 37 84 -62 76 -45 -4 -103 -13 -130 -21 -67 -19 -102 -18 -150 6 -48 23 -61 41 -70 96 -7 38 -5 42 89 159 53 66 129 149 168 184 40 36 78 71 85 78 7 7 18 13 23 13 25 0 100 163 83 180 -11 11 -271 17 -394 10z"></path><path id="pyLPyjc3M" d="M5234 3933 c-52 -54 -91 -158 -109 -288 -9 -66 -23 -148 -31 -183 -27 -120 -14 -242 28 -250 15 -3 101 49 113 68 3 5 30 25 59 45 43 28 62 35 102 35 57 -1 83 -13 116 -55 40 -52 29 -124 -70 -430 -32 -98 -36 -122 -36 -220 -1 -101 2 -118 33 -205 56 -155 88 -206 128 -198 10 2 42 38 72 82 29 43 68 86 85 97 42 26 121 25 164 -1 58 -35 61 -57 65 -377 l3 -288 32 -74 c98 -224 170 -339 204 -326 9 4 35 50 59 103 56 130 86 173 131 190 81 31 143 -6 209 -125 34 -63 43 -92 51 -157 12 -112 51 -243 99 -339 52 -102 261 -321 301 -315 26 4 48 70 48 145 0 29 9 78 21 109 24 62 56 84 126 84 50 0 57 6 87 70 42 90 43 88 -111 185 -75 48 -181 121 -236 163 -55 42 -112 86 -127 97 -34 25 -220 205 -316 305 -226 239 -472 619 -614 951 -148 349 -222 623 -270 1012 -10 76 -17 100 -31 107 -10 6 -94 10 -188 10 l-170 0 -27 -27z"></path><path id="pBNF9SS1A" d="M11979 2483 c-133 -213 -156 -248 -227 -338 -35 -44 -84 -107 -110 -140 -129 -165 -435 -450 -623 -580 -46 -32 -111 -77 -144 -100 -81 -55 -355 -204 -425 -229 -19 -8 -87 -35 -150 -61 -63 -26 -133 -53 -155 -60 -109 -36 -359 -107 -402 -114 -26 -5 -95 -18 -153 -29 -256 -50 -563 -64 -812 -38 -73 8 -140 14 -148 14 -77 1 -592 122 -682 161 -23 10 -86 33 -138 50 -52 18 -155 63 -228 99 -165 82 -164 82 -192 -58 -8 -43 -7 -47 25 -80 19 -19 43 -58 54 -87 29 -75 98 -210 134 -263 103 -152 314 -309 421 -313 l41 -2 3 42 c2 24 -3 57 -11 75 -71 166 -14 271 139 255 99 -10 150 -43 249 -158 130 -150 168 -184 269 -238 191 -104 396 -147 396 -84 0 10 -21 60 -46 111 -42 85 -46 98 -42 149 10 117 94 141 284 83 55 -17 120 -45 145 -63 26 -18 93 -63 149 -102 l103 -70 235 -3 c148 -2 238 0 244 6 13 13 -15 54 -105 151 -73 79 -87 103 -87 155 0 61 55 101 179 131 88 21 132 14 281 -45 52 -20 142 -52 199 -70 l104 -32 146 45 c80 26 165 52 189 58 24 7 48 22 54 33 9 17 6 25 -25 51 -20 17 -74 54 -119 82 -46 28 -89 62 -95 75 -28 58 -22 115 15 145 31 24 146 75 202 89 75 18 233 17 330 -2 44 -9 95 -13 114 -10 37 7 303 138 379 186 26 16 47 36 47 44 0 18 -125 79 -220 107 -41 12 -79 27 -85 33 -50 51 -58 109 -23 158 29 42 119 81 368 163 113 37 230 80 260 97 101 56 175 125 245 227 65 95 59 102 -97 111 -78 4 -125 12 -151 24 -38 19 -67 59 -67 94 0 62 -26 86 -131 120 -57 19 -65 15 -110 -55z"></path></g></g><g id="l2cCcr8bcXW8trJYHavZUDV" fill="rgb(79,83,91)" style="transform: none;"><g style="transform: none;"><path id="pnhp7u5Kk" d="M5010 7200 c0 -11 7 -20 15 -20 8 0 15 -9 15 -20 0 -14 7 -20 21 -20 11 0 18 4 14 9 -3 5 6 19 21 30 28 22 25 41 -7 41 -17 0 -18 -3 -9 -20 6 -11 7 -20 2 -20 -6 0 -12 9 -15 20 -3 14 -14 20 -31 20 -19 0 -26 -5 -26 -20z"></path><path id="p14k1IoAbK" d="M8481 7211 c-8 -5 -11 -17 -6 -30 8 -27 25 -18 18 9 -3 11 0 20 6 20 6 0 11 -7 11 -15 0 -16 26 -10 33 8 5 14 -42 20 -62 8z"></path><path id="p13X1kf8ip" d="M9220 7206 c0 -22 17 -28 24 -10 9 22 8 24 -9 24 -8 0 -15 -6 -15 -14z"></path><path id="pxH0gndSg" d="M11630 7212 c-14 -5 -12 -32 3 -34 6 -1 30 -2 53 -2 33 -1 40 2 36 16 -2 10 3 18 15 20 10 3 -8 4 -39 4 -32 -1 -62 -2 -68 -4z"></path><path id="pdWM1uUaY" d="M11746 7184 c-4 -11 0 -15 16 -12 12 2 23 9 26 16 6 18 -35 15 -42 -4z"></path><path id="pM2Tsu0r1" d="M9184 7120 c-15 -6 -21 -16 -19 -32 1 -13 3 -31 4 -40 0 -10 9 -18 19 -18 16 0 19 8 18 50 -1 27 -1 50 -1 49 0 0 -10 -4 -21 -9z"></path><path id="pHiSN87wH" d="M9682 7040 c0 -19 2 -27 5 -17 2 9 2 25 0 35 -3 9 -5 1 -5 -18z"></path><path id="pGvvok8jC" d="M6304 6918 c4 -35 9 -65 11 -67 2 -2 12 4 21 14 15 14 15 18 3 26 -19 12 -3 12 20 0 13 -7 17 -5 17 9 0 11 -10 21 -24 25 -12 3 -20 10 -17 14 8 15 -6 41 -22 41 -13 0 -14 -10 -9 -62z"></path><path id="pE72NhAn3" d="M6407 6939 c-22 -25 -15 -49 13 -49 16 0 20 6 20 35 0 40 -8 44 -33 14z"></path><path id="pAYd7HtDN" d="M9168 6873 c-4 -105 0 -133 17 -133 18 0 25 34 25 133 0 79 -2 87 -19 87 -18 0 -20 -9 -23 -87z m32 -8 c0 -8 -4 -15 -10 -15 -5 0 -10 7 -10 15 0 8 5 15 10 15 6 0 10 -7 10 -15z"></path><path id="pt3mK8XZW" d="M9652 6705 c2 -29 8 -41 21 -43 14 -3 17 4 17 33 0 24 -4 34 -11 29 -6 -3 -15 0 -20 7 -7 9 -9 1 -7 -26z"></path><path id="pPta6zIdj" d="M10265 6709 c-9 -14 3 -77 16 -85 6 -3 18 1 27 10 10 10 12 16 5 16 -7 0 -15 16 -19 35 -6 35 -17 44 -29 24z"></path><path id="p41daJZDC" d="M8446 6694 c-3 -9 -6 -27 -6 -40 0 -15 -6 -24 -15 -24 -8 0 -15 -8 -15 -18 0 -22 30 -23 55 -2 14 11 18 11 25 0 5 -8 15 -10 26 -5 18 7 17 8 -3 18 -13 5 -24 16 -24 24 -1 7 -3 18 -4 23 -1 6 -3 17 -4 25 -1 20 -27 19 -35 -1z"></path><path id="pP2NSfuo2" d="M6290 6655 c0 -29 4 -35 21 -35 11 0 18 -4 15 -8 -2 -4 4 -9 15 -9 23 -2 25 13 4 33 -8 9 -15 24 -15 35 0 12 -7 19 -20 19 -16 0 -20 -7 -20 -35z"></path><path id="pfPgPKpFG" d="M10805 6680 c-3 -5 -3 -10 1 -10 4 0 -2 -8 -13 -17 -11 -10 -18 -25 -16 -33 3 -10 2 -11 -4 -3 -5 6 -33 11 -71 10 -51 -1 -62 -4 -60 -17 3 -12 18 -15 82 -13 86 2 106 12 106 54 0 29 -14 46 -25 29z"></path><path id="p9t9o74Tg" d="M11490 6660 c0 -11 -4 -20 -10 -20 -5 0 -10 -9 -10 -20 0 -19 7 -20 166 -20 99 0 163 4 159 9 -3 5 -1 12 4 15 5 3 12 -2 15 -11 6 -14 8 -14 20 3 12 16 12 20 0 27 -9 5 -21 4 -30 -4 -16 -13 -244 -16 -265 -3 -9 5 -10 2 -6 -9 4 -11 1 -17 -9 -17 -11 0 -12 4 -5 18 6 11 6 24 0 35 -13 23 -29 22 -29 -3z"></path><path id="peNx7PISG" d="M11827 6674 c-8 -8 1 -24 14 -24 5 0 9 7 9 15 0 15 -12 20 -23 9z"></path><path id="p14588B2Q5" d="M10504 6653 c1 -16 -9 -18 -85 -18 -76 0 -85 -2 -81 -17 3 -12 18 -19 46 -22 74 -8 86 -6 86 15 0 10 5 19 11 19 6 0 9 -9 6 -19 -4 -17 7 -21 33 -11 3 1 21 2 40 2 34 -1 36 1 38 33 2 19 -2 35 -8 35 -5 0 -10 -6 -10 -14 0 -7 -12 -16 -26 -19 -20 -3 -28 0 -31 14 -7 24 -21 25 -19 2z"></path><path id="pTjPz3BNc" d="M13730 6645 c0 -14 5 -25 10 -25 6 0 9 6 8 13 -2 6 3 11 11 9 12 -3 12 0 1 12 -18 23 -30 20 -30 -9z"></path><path id="pw1RNXBuQ" d="M7574 6625 c-7 -18 -30 -20 -38 -2 -3 6 -5 3 -3 -8 2 -21 42 -31 53 -13 3 4 10 6 15 3 5 -4 9 0 9 8 0 21 -29 30 -36 12z"></path><path id="puZN1BGOK" d="M13784 6620 c0 -31 105 -57 121 -29 10 15 5 17 -40 20 -22 2 -49 9 -60 16 -18 11 -21 10 -21 -7z"></path><path id="p69q6cO0D" d="M4125 6612 c-14 -15 23 -38 50 -32 6 1 24 2 40 2 17 0 24 2 18 5 -7 3 -13 10 -13 16 0 12 -84 19 -95 9z"></path><path id="p1Efd829VZ" d="M13656 4143 c-11 -11 -6 -23 9 -23 8 0 15 4 15 9 0 13 -16 22 -24 14z"></path><path id="pZH2GfIdb" d="M930 4018 c0 -4 28 -8 63 -8 44 0 58 3 47 10 -18 12 -110 10 -110 -2z"></path><path id="p8xuod1YP" d="M1085 4020 c4 -6 280 -10 778 -9 436 0 763 4 752 9 -29 12 -1538 13 -1530 0z"></path><path id="p77UIaEcs" d="M1190 3920 c0 -5 24 -10 53 -9 38 0 47 3 32 9 -28 12 -85 12 -85 0z"></path><path id="p7gsTaona" d="M1950 3920 c-10 -7 11 -10 68 -10 48 0 82 4 82 10 0 13 -130 13 -150 0z"></path><path id="pjDfz1FWE" d="M7840 3668 c-36 -17 -76 -36 -90 -43 -14 -7 -65 -30 -115 -50 -49 -21 -97 -44 -105 -50 -8 -6 -39 -22 -68 -34 -28 -12 -104 -46 -167 -76 -63 -30 -117 -55 -119 -55 -2 0 -55 -24 -117 -53 -262 -124 -629 -288 -653 -293 -10 -2 -26 -10 -36 -19 -9 -8 -19 -12 -23 -9 -3 3 -13 -6 -23 -20 -9 -15 -15 -28 -13 -31 3 -2 22 0 44 6 148 35 222 52 235 53 9 1 21 5 28 10 7 4 12 2 12 -6 0 -10 2 -10 8 -1 9 14 272 104 283 97 4 -2 11 1 14 7 4 5 13 8 21 5 8 -3 14 -1 14 5 0 6 6 9 12 7 7 -3 19 1 26 9 8 7 18 11 23 8 5 -4 9 -2 9 3 0 12 78 44 90 37 4 -3 10 -1 12 4 1 5 10 11 18 13 8 2 17 6 20 10 3 3 12 8 20 10 8 2 21 9 28 16 8 7 18 10 23 7 5 -4 9 -2 9 3 0 9 53 36 65 33 3 -1 15 8 27 19 12 11 27 20 34 20 6 0 17 7 24 15 7 9 19 14 26 11 7 -3 15 2 18 9 3 8 23 23 44 34 35 18 137 85 307 202 28 19 54 40 58 47 4 6 13 12 18 12 14 0 48 43 42 52 -6 11 -11 10 -83 -24z"></path><path id="p1E7waoFV3" d="M10081 3658 c0 -7 27 -33 60 -58 34 -25 75 -57 92 -71 28 -23 139 -97 324 -215 29 -19 56 -34 60 -34 5 0 25 -15 45 -34 21 -19 52 -36 74 -41 49 -9 93 -31 121 -61 23 -25 43 -31 43 -14 0 11 23 0 84 -43 23 -16 47 -25 57 -22 20 7 78 -20 96 -44 11 -14 14 -14 23 -1 7 11 10 11 10 2 0 -7 6 -12 13 -10 21 4 67 -12 109 -38 29 -19 43 -23 48 -14 5 9 13 7 26 -8 13 -13 33 -20 64 -20 25 -1 90 -13 145 -28 55 -14 112 -26 127 -25 15 0 30 -4 33 -10 4 -5 11 -7 16 -4 23 15 2 34 -78 70 -49 21 -95 44 -104 52 -8 7 -22 13 -31 13 -8 0 -18 3 -22 7 -4 4 -13 8 -19 8 -7 0 -45 17 -84 37 -40 20 -73 35 -73 33 0 -2 -55 24 -122 57 -108 53 -133 64 -159 67 -3 1 -14 9 -25 19 -10 9 -37 23 -58 31 -52 18 -194 83 -456 209 -69 33 -145 69 -170 80 -117 52 -225 106 -228 113 -6 14 -42 10 -41 -3z"></path><path id="p2yN4o3bC" d="M8000 3553 c-8 -3 -19 -11 -25 -17 -9 -10 -140 -106 -202 -147 -11 -8 -69 -47 -127 -86 -59 -40 -111 -73 -116 -73 -6 0 -10 -5 -10 -11 0 -5 -4 -8 -9 -5 -5 3 -11 0 -14 -7 -3 -8 -31 -27 -64 -43 -32 -16 -60 -32 -63 -35 -4 -6 -292 -146 -345 -169 -11 -4 -50 -22 -87 -39 -38 -16 -68 -28 -68 -26 0 2 -28 -10 -62 -27 -74 -36 -170 -73 -180 -70 -5 1 -8 -2 -8 -8 0 -5 -15 -13 -32 -19 -30 -9 -169 -63 -245 -96 -17 -8 -36 -23 -42 -33 -10 -19 -7 -24 94 -174 281 -420 560 -699 930 -932 102 -65 438 -246 455 -246 4 0 10 42 14 92 3 51 9 102 12 114 6 22 -22 64 -46 67 -8 2 -26 10 -40 18 -29 19 -112 65 -155 87 -16 9 -44 26 -61 39 -17 13 -36 23 -42 23 -6 0 -12 3 -14 8 -1 4 -55 46 -118 95 -197 150 -257 205 -388 353 -70 80 -128 148 -130 153 -2 5 3 11 10 14 8 2 45 -31 88 -80 41 -47 93 -98 115 -113 22 -15 51 -40 65 -55 35 -38 279 -219 378 -280 45 -27 82 -56 82 -64 0 -8 6 -11 16 -7 9 4 22 2 28 -3 6 -5 56 -32 111 -61 55 -28 104 -58 108 -66 5 -9 16 -12 27 -9 10 3 36 -3 57 -13 21 -11 79 -34 128 -51 124 -44 165 -62 165 -73 0 -5 13 -7 29 -3 20 4 34 1 45 -10 9 -10 24 -14 35 -10 11 3 55 -3 98 -14 43 -11 143 -29 223 -41 79 -12 149 -24 154 -27 5 -4 6 14 3 43 -4 27 -10 97 -13 156 -4 59 -10 105 -15 103 -4 -3 -10 -1 -13 4 -3 5 -41 14 -84 20 -72 11 -135 25 -307 71 -134 35 -456 176 -551 240 -25 16 -47 30 -50 30 -3 0 -10 5 -17 10 -7 6 -40 29 -74 53 -123 84 -180 133 -319 271 -176 177 -223 234 -203 247 10 6 33 -12 89 -70 87 -91 193 -185 298 -263 82 -60 122 -86 219 -143 57 -33 103 -66 103 -74 0 -8 6 -11 16 -7 18 7 63 -18 77 -41 15 -25 25 -13 41 55 8 37 27 118 42 181 l26 113 -33 29 c-19 16 -65 50 -102 76 -91 62 -217 173 -299 264 -80 87 -72 112 11 40 84 -72 268 -204 329 -235 17 -9 32 -24 32 -32 0 -10 6 -14 15 -10 19 7 55 -14 55 -32 0 -9 7 -11 20 -7 12 4 28 1 36 -6 9 -7 18 -8 24 -3 5 5 26 61 48 124 39 112 54 152 74 197 13 28 10 33 -75 100 -60 48 -120 103 -253 231 -15 14 -10 32 8 32 5 0 28 -14 49 -31 l39 -31 0 241 c0 133 -1 241 -2 240 -2 0 -10 -3 -18 -6z"></path><path id="p1FdIXuEwM" d="M10050 3441 c0 -22 9 -60 20 -85 53 -125 70 -221 80 -461 6 -126 14 -246 18 -265 8 -38 33 -50 56 -28 7 7 28 24 46 38 17 14 42 35 55 48 12 12 25 22 29 22 8 0 18 8 76 58 34 30 48 37 57 28 9 -8 -24 -46 -133 -153 -82 -81 -144 -149 -144 -160 0 -17 19 -90 53 -213 9 -30 21 -74 27 -97 7 -27 16 -43 26 -43 9 0 51 25 95 55 44 30 81 55 84 55 3 0 14 8 24 18 11 9 50 40 86 67 37 28 103 84 148 126 44 42 87 75 94 72 20 -8 -1 -39 -96 -137 -154 -159 -320 -286 -531 -408 l-95 -55 3 -164 c2 -165 7 -204 20 -182 11 18 197 108 237 115 11 1 25 8 32 13 7 6 19 15 26 22 24 19 249 153 258 153 5 0 9 4 9 9 0 5 20 21 45 35 25 15 45 31 45 36 0 5 11 12 25 16 14 3 25 10 25 14 0 5 17 18 38 31 20 12 62 47 93 78 94 95 118 113 136 102 14 -7 0 -26 -88 -116 -57 -59 -131 -127 -164 -152 -33 -26 -69 -54 -80 -64 -71 -63 -216 -169 -232 -169 -5 0 -26 -14 -47 -30 -22 -17 -45 -30 -51 -30 -6 0 -21 -9 -33 -20 -12 -12 -22 -18 -22 -15 0 3 -30 -11 -67 -31 -105 -57 -349 -156 -465 -189 l-58 -16 0 -69 c0 -38 5 -90 11 -117 11 -47 13 -49 43 -45 17 3 36 8 41 12 21 15 205 71 215 65 5 -3 10 -2 10 3 0 5 46 28 103 53 130 56 465 225 477 241 11 14 95 68 108 68 6 0 12 4 12 8 0 5 24 24 53 42 28 18 78 55 109 82 31 26 61 48 67 48 6 0 18 11 27 25 9 14 21 25 27 25 33 0 363 359 468 510 139 199 141 201 128 216 -14 17 -118 74 -136 74 -7 0 -13 5 -13 10 0 6 -5 10 -11 10 -10 0 -126 52 -159 71 -8 5 -22 12 -30 15 -42 18 -382 188 -430 215 -30 17 -57 31 -60 30 -11 -2 -46 12 -62 26 -10 9 -43 30 -75 47 -89 48 -115 65 -244 156 -180 128 -184 131 -311 225 -103 78 -128 83 -128 26z"></path><path id="pyY7dkfMt" d="M11932 1428 c6 -18 28 -21 28 -4 0 9 -7 16 -16 16 -9 0 -14 -5 -12 -12z"></path></g></g><g id="l1ivcLBxrglr6VveNkUe5A4" fill="rgb(124,128,136)" style="transform: none;"><g style="transform: none;"><path id="pUrCiquPU" d="M6328 7216 c-20 -14 -24 -36 -8 -36 6 0 10 7 10 15 0 8 6 15 14 15 8 0 18 5 21 10 9 14 -17 12 -37 -4z"></path><path id="p1FMflJBpO" d="M6380 7210 c0 -13 5 -18 15 -14 12 5 13 10 4 20 -15 19 -19 18 -19 -6z"></path><path id="pKUztRSyL" d="M9164 7077 c3 -10 6 -58 7 -105 1 -57 4 -78 9 -62 8 28 16 16 23 -35 3 -16 4 20 3 80 -1 82 -4 110 -14 110 -7 0 -17 7 -23 15 -9 12 -10 12 -5 -3z"></path><path id="paW3WKnB4" d="M9650 6700 c0 -36 22 -90 37 -90 12 0 14 7 9 31 -3 17 -6 38 -6 46 0 8 -5 11 -11 7 -6 -3 -15 0 -20 7 -7 12 -9 11 -9 -1z"></path><path id="pQDoLJNIb" d="M800 4020 c18 -12 167 -14 174 -2 3 5 -39 9 -92 10 -68 2 -93 0 -82 -8z"></path><path id="prBbDypcW" d="M8237 3926 c-26 -24 -38 -76 -18 -76 5 0 15 -25 22 -55 15 -65 11 -71 -91 -143 -36 -26 -70 -51 -76 -57 -7 -5 -32 -22 -58 -37 -43 -25 -60 -48 -36 -48 6 0 10 -74 10 -203 l0 -204 35 -36 c20 -21 40 -37 46 -37 5 0 23 -12 40 -27 17 -16 36 -28 42 -28 7 0 18 -8 25 -17 7 -10 22 -18 32 -18 10 0 23 -6 27 -14 11 -18 51 -38 63 -31 6 3 10 1 10 -5 0 -17 140 -80 165 -74 15 4 24 0 29 -11 4 -11 12 -15 23 -11 9 4 24 -1 34 -10 10 -9 22 -13 27 -10 6 3 62 -5 126 -19 64 -14 128 -25 144 -25 15 0 33 -5 39 -11 27 -27 405 14 565 62 40 12 83 21 96 21 12 0 22 5 22 10 0 5 5 6 10 3 6 -3 10 -1 10 5 0 6 5 8 10 5 6 -3 10 -1 10 5 0 7 6 10 12 8 7 -3 19 2 27 9 7 8 20 12 27 9 8 -3 14 -1 14 5 0 6 5 7 10 4 6 -3 10 -1 10 5 0 6 5 8 10 5 6 -3 10 -1 10 5 0 6 4 9 9 5 5 -3 16 1 24 9 8 8 17 12 21 9 3 -4 6 -1 6 6 0 7 5 9 10 6 6 -3 10 -1 10 5 0 6 5 8 10 5 6 -3 10 -1 10 5 0 6 5 8 10 5 6 -3 10 -2 10 3 0 6 10 12 23 16 13 3 36 17 51 31 15 14 30 25 34 25 3 0 27 21 53 46 44 43 49 45 68 32 21 -15 20 -17 -51 -84 -103 -98 -230 -190 -350 -255 -105 -57 -239 -106 -258 -94 -5 3 -10 2 -10 -3 0 -15 -84 -36 -88 -23 -3 8 -8 8 -16 -2 -13 -18 -114 -29 -119 -14 -2 7 -13 4 -27 -6 -19 -13 -47 -17 -130 -17 -62 0 -110 4 -117 11 -6 6 -53 11 -104 13 -91 2 -133 11 -274 59 -92 31 -276 124 -315 160 -19 18 -26 22 -16 10 11 -14 15 -27 10 -35 -11 -16 -18 -36 -78 -206 -26 -73 -45 -136 -42 -141 3 -5 19 -14 36 -21 16 -7 30 -16 30 -21 0 -12 59 -41 69 -35 11 7 94 -25 107 -42 5 -8 28 -15 50 -17 21 -1 73 -11 115 -23 42 -11 126 -28 185 -36 60 -9 139 -21 176 -27 88 -16 307 -6 478 21 74 11 140 18 147 16 6 -3 13 0 15 5 2 5 17 11 33 12 17 1 33 6 36 11 4 5 21 9 38 10 17 0 31 5 31 10 0 4 7 6 15 2 8 -3 15 -1 15 5 0 6 7 9 15 5 8 -3 15 -1 15 5 0 6 7 9 15 5 8 -3 15 -1 15 3 0 10 61 34 68 27 2 -3 11 2 19 10 9 8 22 13 29 10 8 -3 14 -1 14 4 0 6 3 9 8 8 12 -4 72 24 72 34 0 5 5 6 10 3 6 -3 10 -1 10 5 0 6 5 8 10 5 6 -3 10 -1 10 5 0 6 5 8 10 5 6 -3 10 -1 10 5 0 6 4 9 9 6 5 -4 30 10 55 29 25 19 46 33 46 30 0 -8 83 46 107 70 l22 22 -21 -1 c-31 -1 -36 30 -48 299 -10 240 -27 336 -80 461 -25 58 -25 64 2 64 21 0 21 1 -7 30 -15 16 -32 27 -37 24 -5 -3 -41 21 -81 53 -39 32 -80 65 -91 73 -61 48 -96 85 -96 103 0 11 14 42 30 69 17 26 30 52 30 56 0 4 9 18 19 32 28 36 12 60 -41 60 -49 0 -65 -16 -114 -113 -65 -128 -156 -225 -279 -299 -160 -96 -206 -108 -406 -108 -129 0 -167 3 -220 20 -112 36 -204 87 -279 157 -81 76 -115 120 -185 247 -28 50 -57 92 -66 94 -8 1 -27 -8 -42 -22z"></path><path id="pvOghpKpz" d="M15490 3921 c0 -5 77 -10 180 -11 118 0 180 3 180 10 0 6 -63 10 -180 10 -103 0 -180 -4 -180 -9z"></path><path id="pjODryUiL" d="M15860 3920 c0 -5 11 -10 25 -10 14 0 25 5 25 10 0 6 -11 10 -25 10 -14 0 -25 -4 -25 -10z"></path><path id="pQz8qjrwX" d="M16550 3920 c0 -7 44 -10 125 -9 69 0 125 5 125 10 0 5 -56 9 -125 9 -80 0 -125 -4 -125 -10z"></path><path id="pFVIiiykw" d="M17405 3901 c7 -12 205 -10 205 1 0 4 -48 8 -106 8 -63 0 -103 -4 -99 -9z"></path><path id="p19NJEl5gP" d="M7941 3723 c-24 -9 -51 -37 -51 -51 0 -8 3 -12 8 -10 51 25 62 34 62 50 0 10 -1 18 -2 17 -2 0 -9 -3 -17 -6z"></path><path id="prkbo9oM3" d="M10092 3661 c-17 -10 1 -26 41 -36 31 -8 38 10 7 20 -11 3 -20 11 -20 16 0 11 -11 11 -28 0z"></path><path id="p16ZaYxWiw" d="M10252 3579 c2 -7 10 -15 17 -17 8 -3 12 1 9 9 -2 7 -10 15 -17 17 -8 3 -12 -1 -9 -9z"></path><path id="p4GyDygg2" d="M7578 3551 c-21 -10 -41 -20 -44 -23 -8 -9 30 -4 41 5 6 4 19 14 30 22 26 19 19 18 -27 -4z"></path><path id="p9GPrqEkQ" d="M10670 3240 c0 -12 26 -25 65 -34 28 -6 28 -5 -10 18 -44 28 -55 31 -55 16z"></path><path id="pCir0desh" d="M10990 3245 c0 -2 9 -9 20 -15 16 -9 18 -8 14 5 -5 13 -34 22 -34 10z"></path><path id="plTaQ6VVg" d="M7148 3199 c-10 -5 -18 -15 -18 -20 0 -6 7 -3 16 5 8 9 20 14 25 11 5 -4 9 -1 9 4 0 14 -10 13 -32 0z"></path><path id="p84nmrtve" d="M10850 3150 c0 -12 40 -33 48 -25 4 4 -2 13 -12 21 -23 16 -36 18 -36 4z"></path><path id="pWRCE3ypR" d="M6986 3131 c-26 -11 -36 -20 -28 -25 7 -4 12 -2 12 4 0 7 6 10 12 8 7 -3 19 1 26 9 8 7 18 11 23 8 5 -4 9 -1 9 4 0 14 -7 13 -54 -8z"></path><path id="p1Gj9gA9iI" d="M10960 3106 c0 -5 65 -46 74 -46 18 0 2 20 -28 34 -35 16 -46 19 -46 12z"></path><path id="pi8AR6lx7" d="M10670 3050 c0 -15 21 -23 32 -12 6 6 2 11 -11 15 -12 3 -21 1 -21 -3z"></path><path id="p1RtPqLbB" d="M11132 3028 c5 -15 28 -23 28 -10 0 5 -7 13 -16 16 -10 4 -14 1 -12 -6z"></path><path id="pPWMmQqxh" d="M6385 3007 c-10 -8 -14 -17 -9 -20 6 -3 15 3 22 14 14 23 12 24 -13 6z"></path><path id="pQAd86vSE" d="M6326 2968 c-19 -26 -20 -38 -5 -38 5 0 8 4 4 9 -3 5 2 17 11 26 9 9 14 18 11 21 -3 3 -12 -5 -21 -18z"></path><path id="piMSVqZwB" d="M11298 2970 c37 -22 42 -24 42 -11 0 5 -14 14 -31 20 -46 16 -48 14 -11 -9z"></path><path id="peuWb3BFd" d="M10880 2954 c0 -11 81 -55 92 -51 8 4 7 6 -4 6 -10 1 -18 5 -18 9 0 4 -16 15 -35 24 -19 8 -35 14 -35 12z"></path><path id="pjZi1tmJq" d="M11372 2949 c5 -17 48 -25 48 -10 0 6 -4 11 -9 11 -5 0 -17 3 -27 7 -12 4 -15 2 -12 -8z"></path><path id="pkegjAYEM" d="M11710 2912 c1 -11 40 -58 40 -48 0 5 6 3 14 -3 18 -15 28 0 13 19 -14 17 -67 43 -67 32z"></path><path id="p14aQl3u3Y" d="M7515 2867 c-8 -19 10 -47 31 -47 19 0 17 10 -6 40 -17 22 -19 23 -25 7z"></path><path id="pN21Qkpjp" d="M10493 2823 c-17 -6 -17 -33 0 -33 14 0 37 20 37 32 0 9 -18 9 -37 1z"></path><path id="pCfzGswX7" d="M11192 2784 c2 -12 13 -19 33 -21 31 -2 28 2 -18 28 -16 9 -18 8 -15 -7z"></path><path id="pmtBC3gq3" d="M7110 2624 c0 -23 1 -24 16 -10 8 9 12 20 9 26 -12 19 -25 10 -25 -16z"></path><path id="p1CZ7p6ETi" d="M11532 2618 c6 -18 28 -21 28 -4 0 9 -7 16 -16 16 -9 0 -14 -5 -12 -12z"></path><path id="p1ABogx06c" d="M11572 2598 c3 -7 14 -14 26 -14 18 -1 20 2 11 12 -14 17 -42 18 -37 2z"></path><path id="pZIjfzE13" d="M10844 2538 c-4 -6 -2 -14 4 -16 7 -2 9 -9 6 -14 -4 -7 -2 -8 4 -4 14 9 16 33 3 41 -5 3 -13 0 -17 -7z"></path><path id="pHoiabI9O" d="M10135 2454 c-148 -101 -412 -233 -435 -219 -4 2 -16 -2 -26 -10 -10 -8 -29 -15 -41 -15 -12 0 -25 -5 -29 -11 -3 -6 -14 -9 -24 -6 -11 3 -28 -2 -40 -10 -12 -8 -30 -13 -40 -10 -10 3 -28 -2 -39 -10 -14 -9 -32 -12 -54 -8 -25 5 -38 2 -51 -10 -13 -14 -27 -16 -64 -11 -35 4 -53 2 -70 -9 -30 -22 -350 -24 -363 -3 -6 9 -27 12 -68 11 -62 -2 -267 36 -324 61 -18 7 -66 23 -107 36 -69 21 -213 86 -303 138 -21 12 -40 22 -42 22 -12 0 -88 -348 -81 -367 4 -9 13 -13 21 -9 9 3 18 -1 22 -9 3 -10 12 -13 23 -10 11 3 20 -1 24 -11 3 -8 12 -14 19 -11 6 2 28 -2 47 -10 183 -76 617 -173 772 -173 20 0 39 -4 43 -9 7 -12 305 -11 305 1 0 4 20 8 44 8 24 0 81 6 127 14 46 8 95 13 109 12 14 -1 27 1 30 5 3 4 25 9 50 11 25 1 51 9 59 16 8 8 25 12 38 9 12 -2 23 -1 23 3 0 10 119 42 131 35 5 -4 9 -2 9 3 0 11 90 45 90 34 0 -4 4 -2 8 3 4 6 45 26 92 44 47 18 117 50 156 72 39 21 74 36 77 32 4 -3 7 -1 7 6 0 7 5 9 10 6 6 -3 10 -1 10 5 0 6 5 8 10 5 6 -3 10 -1 10 4 0 6 3 10 8 9 4 -2 20 7 36 20 26 20 27 22 8 22 -17 0 -24 9 -32 43 -6 23 -18 67 -27 97 -39 139 -54 204 -49 216 3 8 4 14 3 13 -1 0 -51 -34 -112 -75z"></path><path id="pS7Lu6KyJ" d="M10795 2505 c-35 -36 -31 -45 5 -10 17 16 30 30 30 32 0 8 -11 1 -35 -22z"></path><path id="p1ksOvl4O" d="M6772 2401 c-11 -7 -9 -13 9 -30 21 -19 49 -28 49 -16 0 10 -32 55 -39 55 -3 0 -12 -4 -19 -9z"></path><path id="pQG4XS2AC" d="M11122 2230 c-22 -18 -22 -19 -4 -29 20 -11 42 2 42 25 0 22 -14 23 -38 4z"></path><path id="p1AQxTsSSV" d="M7732 2028 c6 -18 28 -21 28 -4 0 9 -7 16 -16 16 -9 0 -14 -5 -12 -12z"></path><path id="pguzeeZrv" d="M10121 1920 c-25 -17 -51 -28 -58 -26 -7 3 -19 -1 -27 -10 -19 -19 -106 -55 -116 -49 -5 3 -12 0 -15 -5 -9 -14 -51 -31 -89 -36 -17 -2 -33 -9 -37 -15 -4 -7 -14 -9 -22 -6 -9 3 -21 -1 -28 -9 -7 -8 -22 -14 -34 -12 -12 1 -30 -3 -38 -11 -9 -7 -24 -10 -33 -7 -9 4 -28 -1 -41 -10 -14 -9 -33 -14 -44 -11 -10 3 -20 0 -22 -7 -2 -6 -27 -11 -63 -11 -32 0 -66 -4 -74 -10 -8 -5 -64 -10 -124 -10 -76 -1 -111 -5 -114 -13 -5 -16 -259 -17 -264 -1 -2 5 -33 12 -68 14 -36 1 -72 5 -80 8 -16 6 -50 6 -50 0 0 -2 10 -7 23 -12 20 -8 24 -17 26 -63 1 -29 5 -90 9 -135 7 -69 5 -83 -7 -83 -8 0 -12 -3 -8 -6 3 -3 103 -9 223 -11 254 -7 420 6 639 49 83 17 164 31 180 31 17 1 36 8 44 15 8 8 22 11 32 9 10 -3 20 0 21 5 2 6 18 11 36 12 18 0 32 4 32 7 0 3 19 12 43 18 23 7 61 22 84 32 23 11 52 20 65 22 34 3 45 18 42 57 -17 220 -17 270 0 295 21 33 11 31 -43 -5z"></path><path id="p1B9RIy4XY" d="M8099 1846 c13 -15 60 -30 68 -22 5 4 -61 36 -74 36 -3 0 0 -6 6 -14z"></path><path id="pneN6ghB3" d="M8384 1748 c-4 -7 -4 -10 1 -6 4 4 13 4 19 -1 6 -4 25 -11 41 -15 l30 -6 -35 20 c-42 23 -47 24 -56 8z"></path><path id="p14eNZaL54" d="M7812 1628 c5 -15 28 -23 28 -10 0 5 -7 13 -16 16 -10 4 -14 1 -12 -6z"></path><path id="pgDMcDPSh" d="M7761 1554 c14 -15 15 -29 9 -74 -14 -94 -12 -190 4 -190 8 0 17 -7 20 -16 4 -9 13 -14 21 -10 18 7 67 -10 77 -27 4 -7 18 -12 30 -12 13 0 68 -15 123 -32 261 -83 439 -118 728 -145 315 -29 674 -4 989 68 80 19 115 31 109 38 -26 34 -40 171 -21 207 8 15 7 19 -4 19 -8 0 -21 -6 -29 -14 -7 -8 -24 -12 -39 -9 -15 3 -31 -2 -41 -12 -11 -10 -25 -14 -37 -10 -13 4 -31 0 -46 -10 -13 -9 -29 -13 -35 -9 -6 4 -15 0 -20 -7 -5 -9 -28 -14 -67 -14 -35 0 -66 -6 -76 -14 -11 -10 -30 -12 -65 -7 -32 4 -57 2 -74 -7 -20 -10 -91 -14 -297 -15 -148 -1 -270 2 -270 7 0 5 -11 6 -25 3 -15 -2 -25 0 -25 7 0 8 -11 10 -36 5 -26 -5 -39 -3 -45 7 -5 9 -27 14 -68 13 -38 -1 -62 4 -65 11 -2 7 -26 12 -58 13 -54 0 -132 19 -273 67 -175 59 -344 131 -358 152 -4 7 -18 18 -30 24 -21 11 -21 11 -6 -7z"></path><path id="pyswapXwW" d="M8190 1480 c0 -5 7 -10 15 -10 8 0 15 5 15 10 0 6 -7 10 -15 10 -8 0 -15 -4 -15 -10z"></path><path id="pGTiD6VdC" d="M8270 1460 c0 -5 7 -10 15 -10 8 0 15 5 15 10 0 6 -7 10 -15 10 -8 0 -15 -4 -15 -10z"></path></g></g><g id="l3vAcSOqXwOvGuTQvXG1gpv" fill="rgb(13,14,18)" style="transform: none;"><g style="transform: none;"><path id="px6BpgmRN" d="M4105 7220 c-154 -26 -245 -115 -246 -241 -1 -74 18 -163 47 -221 29 -56 82 -120 95 -112 5 3 9 0 9 -6 0 -5 13 -9 29 -8 29 2 34 18 6 18 -7 0 -29 30 -48 68 -91 177 -71 331 55 422 29 21 56 30 106 36 37 4 71 7 75 6 5 -2 6 2 2 8 -3 6 4 14 17 19 20 9 18 10 -17 11 -22 0 -49 2 -60 4 -11 2 -42 0 -70 -4z"></path><path id="p1isce8HL" d="M13783 7215 c-104 -28 -190 -108 -222 -208 -7 -21 -10 -45 -7 -53 3 -9 1 -12 -4 -9 -6 3 -10 -3 -10 -14 0 -12 4 -21 9 -21 4 0 7 -13 5 -30 -2 -16 1 -32 6 -35 6 -4 8 -11 4 -16 -3 -6 1 -16 10 -22 8 -7 17 -24 20 -39 5 -31 77 -113 118 -134 31 -16 41 -18 33 -5 -3 5 0 13 6 16 7 5 3 14 -10 26 -11 10 -33 40 -48 66 -26 45 -28 56 -28 158 0 102 2 114 29 168 28 55 76 100 129 120 10 4 15 12 11 18 -3 6 0 15 7 20 19 12 3 10 -58 -6z"></path><path id="pyCcjIN1h" d="M13917 7209 c4 -12 11 -18 20 -15 8 4 37 -17 71 -52 47 -46 61 -69 75 -117 10 -33 22 -67 26 -75 4 -8 8 -37 10 -63 1 -36 -1 -47 -10 -41 -9 5 -10 2 -6 -10 4 -9 3 -24 -3 -34 -5 -9 -19 -39 -32 -66 -13 -27 -35 -62 -50 -77 -56 -56 -19 -73 55 -25 110 71 151 145 151 271 0 60 -5 91 -21 125 -44 94 -154 177 -254 193 -33 5 -36 3 -32 -14z"></path><path id="p8RCLt0VJ" d="M4984 7207 c-3 -8 23 -62 58 -120 35 -59 67 -116 73 -127 5 -11 16 -22 23 -25 7 -2 10 -1 7 5 -3 5 11 14 32 19 47 13 190 14 198 2 6 -11 -79 -196 -95 -206 -5 -3 -22 14 -38 39 -15 25 -35 46 -44 46 -12 0 -2 -24 43 -100 33 -55 66 -100 74 -100 17 0 46 40 78 110 135 298 177 379 211 412 27 26 28 29 9 23 -17 -5 -23 -2 -23 8 0 9 6 18 13 20 6 3 -18 6 -55 6 -75 1 -88 -9 -88 -69 0 -43 -43 -124 -73 -137 -17 -8 -61 -10 -132 -6 -105 6 -107 7 -130 38 -14 17 -31 50 -39 72 -13 38 -13 42 7 64 l22 23 -22 -18 c-23 -19 -23 -19 -23 1 0 30 -75 47 -86 20z"></path><path id="p12Y9rRU6z" d="M6210 7194 c0 -13 4 -24 8 -24 5 0 9 -6 10 -12 1 -7 7 -47 13 -88 7 -41 13 -157 13 -257 1 -107 5 -186 11 -192 14 -13 62 -2 69 16 3 8 2 12 -2 9 -11 -6 -2 217 9 231 7 7 5 13 -3 16 -10 4 -10 6 0 6 13 1 17 31 3 31 -5 0 -9 46 -10 102 -1 56 -4 105 -7 110 -3 4 0 8 6 8 6 0 8 5 5 10 -3 6 0 10 7 10 10 0 10 2 -1 9 -8 5 -12 15 -9 22 4 11 -9 14 -58 16 -62 1 -64 0 -64 -23z"></path><path id="p1GTevXbpT" d="M6640 7194 c-25 -14 -65 -51 -90 -82 -25 -31 -66 -82 -92 -113 -27 -30 -48 -61 -48 -68 0 -7 -4 -9 -10 -6 -14 8 -13 -18 1 -32 6 -6 18 -9 25 -6 8 3 14 1 14 -4 0 -6 17 -15 38 -21 43 -13 82 -64 82 -106 0 -41 -30 -84 -72 -104 -47 -21 -48 -38 -3 -46 68 -13 175 54 191 120 3 13 3 36 -1 51 -9 36 -95 120 -105 103 -5 -7 -16 -9 -29 -5 -18 5 -20 9 -10 21 9 11 8 14 -5 14 -9 0 -16 5 -16 12 0 6 3 8 6 5 4 -4 19 13 35 36 15 23 41 56 56 73 15 16 41 47 57 68 15 20 39 42 52 48 13 6 21 15 18 19 -3 5 1 6 8 4 8 -3 22 1 33 9 19 14 19 15 -4 9 -16 -4 -26 -1 -33 11 -13 23 -46 20 -98 -10z"></path><path id="p1Aj3Cecai" d="M7360 7205 c0 -10 -5 -13 -12 -9 -8 5 -9 2 -5 -11 4 -10 12 -38 19 -64 6 -25 14 -50 18 -56 4 -5 13 -40 19 -77 13 -75 5 -150 -30 -277 -26 -98 -21 -112 41 -110 27 1 47 6 44 11 -5 8 6 11 41 9 18 -1 18 0 -3 9 -34 15 -43 51 -36 158 3 53 6 160 7 236 2 101 5 140 15 144 17 5 15 22 -3 22 -18 0 -20 17 -2 23 6 2 -16 5 -50 6 -52 1 -63 -1 -63 -14z"></path><path id="p16J2Npxl7" d="M8374 7206 c-4 -9 -1 -61 6 -115 9 -67 11 -145 6 -242 -10 -199 -11 -203 -18 -215 -9 -14 0 -24 24 -24 10 0 18 -4 18 -9 0 -11 39 -3 57 12 10 7 12 74 10 278 -1 156 2 270 7 272 5 2 10 14 10 28 1 23 -2 25 -56 27 -46 3 -59 0 -64 -12z"></path><path id="p1HBv4FVLf" d="M10520 7202 c0 -11 -3 -13 -8 -5 -4 6 -7 -116 -7 -270 0 -155 -4 -288 -9 -295 -13 -19 1 -27 50 -27 30 -1 45 4 50 15 3 8 6 128 5 265 -2 204 1 254 12 270 13 17 13 21 -2 32 -13 10 -13 14 -3 21 8 5 -6 9 -38 9 -40 1 -50 -2 -50 -15z"></path><path id="pQjxcCCZy" d="M11723 7213 c9 -2 25 -2 35 0 9 3 1 5 -18 5 -19 0 -27 -2 -17 -5z"></path><path id="pN1puJ7o5" d="M12510 7211 c-21 -6 -24 -12 -22 -37 2 -16 7 -136 10 -267 6 -220 8 -240 26 -253 27 -19 52 -18 60 3 4 10 6 59 5 109 -1 50 1 97 5 103 12 19 103 13 147 -9 44 -23 79 -71 79 -111 0 -14 -11 -43 -25 -63 -14 -21 -21 -35 -16 -31 5 3 14 -3 20 -12 7 -11 11 -13 11 -5 0 10 8 12 28 7 35 -7 73 20 92 65 26 62 -24 154 -100 184 -45 18 -52 42 -20 71 11 10 18 20 15 23 -2 3 5 13 17 23 14 13 17 19 7 19 -9 0 -7 5 6 12 11 6 40 31 65 54 25 23 58 53 73 67 26 21 27 26 13 39 -11 12 -25 14 -57 8 -52 -10 -83 -32 -136 -101 -24 -30 -68 -82 -99 -116 -48 -54 -61 -63 -90 -63 l-34 0 0 107 c0 96 2 109 22 130 18 20 19 23 5 23 -9 0 -17 6 -17 13 0 15 -51 19 -90 8z"></path><path id="p1HVvDRVRg" d="M11415 7198 c-3 -8 3 -69 13 -134 15 -87 18 -134 12 -174 -5 -30 -9 -106 -9 -167 l-1 -113 27 -6 c51 -13 58 2 59 132 0 66 5 128 9 138 5 12 5 21 -1 23 -14 5 -5 256 9 265 7 4 26 8 42 9 21 1 24 3 10 6 -11 3 -23 10 -26 15 -4 6 -36 12 -73 15 -52 5 -67 3 -71 -9z"></path><path id="p12Qo3ajOs" d="M11778 7202 c-36 -4 -45 -29 -10 -29 49 0 63 -3 57 -13 -3 -6 1 -7 9 -4 9 3 16 2 16 -3 0 -5 7 -10 15 -10 16 0 16 25 0 43 -13 13 -51 20 -87 16z"></path><path id="pK1itIzKn" d="M4366 7141 c-8 -12 16 -38 42 -46 28 -8 28 6 -1 33 -25 24 -33 26 -41 13z"></path><path id="pAaWtyEaS" d="M5156 6928 c-8 -33 -8 -35 9 -35 8 0 15 4 15 9 0 4 -4 8 -9 8 -5 0 -7 9 -4 20 3 11 3 20 0 20 -2 0 -7 -10 -11 -22z"></path><path id="pI0U8WzUz" d="M7550 6920 c7 -4 9 -13 6 -19 -7 -10 13 -15 51 -14 7 1 10 -3 7 -8 -3 -5 2 -9 10 -9 9 0 16 -5 16 -11 0 -5 4 -8 8 -5 10 6 14 -12 16 -85 1 -48 -3 -60 -29 -92 -16 -19 -35 -36 -42 -36 -7 -1 -17 -10 -23 -21 -11 -20 -9 -20 41 -16 62 7 131 38 159 73 15 20 20 41 20 89 0 57 -3 67 -31 99 -28 31 -36 35 -62 29 -25 -5 -29 -4 -24 10 7 19 10 18 -71 21 -35 1 -58 -1 -52 -5z"></path><path id="pFC1VnMyl" d="M11678 6903 c12 -2 22 -8 22 -13 0 -5 -10 -11 -22 -13 -13 -2 -4 -5 19 -6 31 -1 46 -7 61 -26 20 -26 42 -33 42 -14 0 5 -4 8 -9 5 -4 -3 -17 4 -27 15 -14 16 -15 19 -2 14 26 -10 30 12 6 29 -13 10 -41 15 -68 15 -25 -1 -35 -4 -22 -6z"></path><path id="pskyC1KYd" d="M5170 6865 c7 -8 19 -15 27 -15 13 0 13 3 3 15 -7 8 -19 15 -27 15 -13 0 -13 -3 -3 -15z"></path><path id="p1AqC9zrXz" d="M4394 6734 c-9 -25 -33 -58 -52 -74 -19 -15 -31 -33 -28 -38 3 -6 -2 -13 -11 -15 -10 -3 6 -3 36 -1 31 2 60 -1 68 -8 20 -17 27 -3 31 67 5 68 -3 115 -17 115 -5 0 -17 -21 -27 -46z"></path><path id="pKpBORcPz" d="M11831 6688 c-13 -35 -1 -47 28 -29 8 5 11 16 6 30 -8 27 -23 27 -34 -1z"></path><path id="pFWZTi4Q5" d="M10810 6677 c0 -9 -4 -17 -10 -17 -5 0 -10 -7 -10 -16 0 -8 -4 -12 -10 -9 -6 3 -7 -1 -4 -9 13 -34 57 -6 51 32 -4 27 -17 41 -17 19z"></path><path id="paQ0vn14F" d="M10265 6660 c9 -32 20 -44 34 -36 16 11 13 26 -6 33 -10 4 -22 11 -26 17 -5 6 -5 0 -2 -14z"></path><path id="p1H2R0nguK" d="M11813 6634 c-9 -24 11 -36 24 -15 10 16 9 20 -3 25 -8 3 -17 -1 -21 -10z"></path></g></g></svg>